<?xml version="1.0" encoding="UTF-8"?>
<svg width="34px" height="34px" viewBox="0 0 34 34" version="1.1" xmlns="http://www.w3.org/2000/svg" xmlns:xlink="http://www.w3.org/1999/xlink">
    <title>icon备份 5</title>
    <defs>
        <filter id="filter-1">
            <feColorMatrix in="SourceGraphic" type="matrix" values="0 0 0 0 1.000000 0 0 0 0 1.000000 0 0 0 0 1.000000 0 0 0 1.000000 0"></feColorMatrix>
        </filter>
    </defs>
    <g id="页面-1" stroke="none" stroke-width="1" fill="none" fill-rule="evenodd">
        <g id="编组" transform="translate(-215.000000, -412.000000)" filter="url(#filter-1)">
            <g transform="translate(102.000000, 413.000000)">
                <g id="icon备份-5" transform="translate(114.000000, 0.000000)">
                    <g id="Computers,-Devices,-Electronics/Laptop,-Mobile" transform="translate(-1.000000, -1.000000)">
                        <g id="Group" transform="translate(0.993333, 0.993333)">
                            <g stroke-linecap="round" stroke-linejoin="round" transform="translate(3.667778, 3.667778)" id="Path" stroke="#323232" stroke-width="2">
                                <path d="M9.57240333,12.4375967 C10.464775,13.3299683 10.464775,14.7785717 9.57240333,15.6709433 C8.68003167,16.563315 7.23142833,16.563315 6.33905667,15.6709433 C5.446685,14.7785717 5.446685,13.3299683 6.33905667,12.4375967 C7.23276222,11.5438911 8.68003167,11.5438911 9.57240333,12.4375967"></path>
                                <polyline points="13.6727778 6.81258722 10.2433494 5.66944444 10.2433494 14.05427"></polyline>
                                <path d="M13.6727778,24.5573111 L5.45602222,24.5573111 C2.50946167,24.5573111 0.120466667,22.1683161 0.120466667,19.2217556 L0.120466667,5.45602222 C0.120466667,2.50946167 2.50946167,0.120466667 5.45602222,0.120466667 L19.2217556,0.120466667 C22.1683161,0.120466667 24.5573111,2.50946167 24.5573111,5.45602222 L24.5573111,12.3388889"></path>
                                <path d="M21.0091667,17.2822811 C21.3666489,16.8847822 21.9842394,16.4352617 22.925965,16.4352617 C24.5719839,16.4352617 25.6777778,17.907875 25.6777778,19.2791128 C25.6764439,22.1469739 21.9322178,24.3438889 21.0091667,24.3438889 C20.0861156,24.3438889 16.3405556,22.1469739 16.3405556,19.2804467 C16.3405556,17.907875 17.4450156,16.4365956 19.0923683,16.4365956 C20.03276,16.4365956 20.6516844,16.8847822 21.0091667,17.2822811 Z"></path>
                            </g>
                            <polygon id="Path" points="0 0 32.0133333 0 32.0133333 32.0133333 0 32.0133333"></polygon>
                        </g>
                    </g>
                </g>
            </g>
        </g>
    </g>
</svg>